<svg width="500" height="500" viewBox="0 0 500 500" fill="none" xmlns="http://www.w3.org/2000/svg">
<g clip-path="url(#clip0_2_69)">
<rect width="500" height="500" rx="65" fill="#141B34"/>
<path d="M325.2 128C325.2 143.575 312.574 156.2 297 156.2C281.425 156.2 268.8 143.575 268.8 128C268.8 112.426 281.425 99.8 297 99.8C312.574 99.8 325.2 112.426 325.2 128Z" stroke="#00DAFF" stroke-width="28.2001"/>
<path d="M294.372 306.6L312.114 296.336C332.317 284.647 342.419 278.803 343.784 270.474C343.997 269.173 344.053 267.856 343.95 266.544C343.289 258.151 333.705 251.683 314.538 238.746L226.046 179.016C191.291 155.557 183.294 112.793 207.718 81" stroke="#00DAFF" stroke-width="28.2001" stroke-linecap="round" stroke-linejoin="round"/>
<path d="M226.046 179.016C179.046 226.016 156 356.089 156 419.407M226.046 179.016C191.291 155.557 183.294 112.793 207.718 81M226.046 179.016L275.803 212.6M294.372 306.6L312.114 296.336C332.317 284.647 342.419 278.803 343.784 270.474C343.997 269.173 344.053 267.856 343.95 266.544C343.289 258.151 333.705 251.683 314.538 238.746L275.803 212.6M306.403 419.407C288.104 398.057 269.284 368.641 250.943 341.528C238.093 322.532 231.668 313.034 230.908 303.089M275.803 212.6C260.711 232.135 250.308 250.59 242.529 267.012C234.276 284.434 230.149 293.144 230.908 303.089M230.908 303.089L174.8 287.8" stroke="#00DAFF" stroke-width="28.2001" stroke-linecap="round" stroke-linejoin="round"/>
</g>
<defs>
<clipPath id="clip0_2_69">
<rect width="500" height="500" fill="white"/>
</clipPath>
</defs>
</svg>
